<?xml version="1.0" encoding="UTF-8" standalone="no"?><!DOCTYPE svg PUBLIC "-//W3C//DTD SVG 1.1//EN" "http://www.w3.org/Graphics/SVG/1.1/DTD/svg11.dtd"><svg width="100%" height="100%" viewBox="0 0 1024 1024" version="1.1" xmlns="http://www.w3.org/2000/svg" xmlns:xlink="http://www.w3.org/1999/xlink" xml:space="preserve" xmlns:serif="http://www.serif.com/" style="fill-rule:evenodd;clip-rule:evenodd;stroke-linecap:round;stroke-linejoin:round;stroke-miterlimit:1.5;"><path d="M288.183,332.278c0,-18.061 -14.663,-32.724 -32.724,-32.724l-186.953,0c-18.061,0 -32.724,14.663 -32.724,32.724c0,18.061 14.663,32.724 32.724,32.724l186.953,0c18.061,0 32.724,-14.663 32.724,-32.724Z" style="stroke:#000;stroke-width:10px;"/><path d="M288.183,512c0,-18.061 -14.663,-32.724 -32.724,-32.724l-186.953,0c-18.061,0 -32.724,14.663 -32.724,32.724c0,18.061 14.663,32.724 32.724,32.724l186.953,0c18.061,0 32.724,-14.663 32.724,-32.724Z" style="stroke:#000;stroke-width:10px;"/><path d="M288.183,691.722c0,-18.061 -14.663,-32.724 -32.724,-32.724l-186.953,0c-18.061,0 -32.724,14.663 -32.724,32.724c0,18.061 14.663,32.724 32.724,32.724l186.953,0c18.061,0 32.724,-14.663 32.724,-32.724Z" style="stroke:#000;stroke-width:10px;"/><path d="M988.218,332.278c0,-18.061 -14.663,-32.724 -32.724,-32.724l-186.953,0c-18.061,0 -32.724,14.663 -32.724,32.724c0,18.061 14.663,32.724 32.724,32.724l186.953,0c18.061,0 32.724,-14.663 32.724,-32.724Z" style="stroke:#000;stroke-width:10px;"/><path d="M988.218,512c0,-18.061 -14.663,-32.724 -32.724,-32.724l-186.953,0c-18.061,0 -32.724,14.663 -32.724,32.724c0,18.061 14.663,32.724 32.724,32.724l186.953,0c18.061,0 32.724,-14.663 32.724,-32.724Z" style="stroke:#000;stroke-width:10px;"/><path d="M988.218,691.722c0,-18.061 -14.663,-32.724 -32.724,-32.724l-186.953,0c-18.061,0 -32.724,14.663 -32.724,32.724c0,18.061 14.663,32.724 32.724,32.724l186.953,0c18.061,0 32.724,-14.663 32.724,-32.724Z" style="stroke:#000;stroke-width:10px;"/><path d="M691.722,988.218c18.061,0 32.724,-14.663 32.724,-32.724l0,-186.953c0,-18.061 -14.663,-32.724 -32.724,-32.724c-18.061,0 -32.724,14.663 -32.724,32.724l0,186.953c0,18.061 14.663,32.724 32.724,32.724Z" style="stroke:#000;stroke-width:10px;"/><path d="M512,988.218c18.061,0 32.724,-14.663 32.724,-32.724l0,-186.953c0,-18.061 -14.663,-32.724 -32.724,-32.724c-18.061,0 -32.724,14.663 -32.724,32.724l0,186.953c0,18.061 14.663,32.724 32.724,32.724Z" style="stroke:#000;stroke-width:10px;"/><path d="M332.278,988.218c18.061,0 32.724,-14.663 32.724,-32.724l0,-186.953c0,-18.061 -14.663,-32.724 -32.724,-32.724c-18.061,0 -32.724,14.663 -32.724,32.724l0,186.953c0,18.061 14.663,32.724 32.724,32.724Z" style="stroke:#000;stroke-width:10px;"/><path d="M691.722,288.183c18.061,0 32.724,-14.663 32.724,-32.724l0,-186.953c0,-18.061 -14.663,-32.724 -32.724,-32.724c-18.061,0 -32.724,14.663 -32.724,32.724l0,186.953c0,18.061 14.663,32.724 32.724,32.724Z" style="stroke:#000;stroke-width:10px;"/><path d="M512,288.183c18.061,0 32.724,-14.663 32.724,-32.724l0,-186.953c0,-18.061 -14.663,-32.724 -32.724,-32.724c-18.061,0 -32.724,14.663 -32.724,32.724l0,186.953c0,18.061 14.663,32.724 32.724,32.724Z" style="stroke:#000;stroke-width:10px;"/><path d="M332.278,288.183c18.061,0 32.724,-14.663 32.724,-32.724l0,-186.953c0,-18.061 -14.663,-32.724 -32.724,-32.724c-18.061,0 -32.724,14.663 -32.724,32.724l0,186.953c0,18.061 14.663,32.724 32.724,32.724Z" style="stroke:#000;stroke-width:10px;"/><path d="M828.154,227.461c0,-17.449 -14.166,-31.615 -31.615,-31.615l-569.078,0c-17.449,0 -31.615,14.166 -31.615,31.615l0,569.078c0,17.449 14.166,31.615 31.615,31.615l569.078,0c17.449,0 31.615,-14.166 31.615,-31.615l0,-569.078Z" style="stroke:#000;stroke-width:1px;"/><rect x="288.183" y="288.183" width="447.634" height="447.634" style="fill:none;stroke:#fff;stroke-width:25px;"/><path d="M378.679,423.827l0,226.607l53.124,0l0,-272.777l-92.391,0l0,46.17l39.267,0Z" style="fill:#fff;fill-rule:nonzero;"/><path d="M595.041,366.613l-83.048,110.841c-22.476,29.824 -34.327,60.097 -34.327,86.289c0,54.833 42.908,93.644 103.052,93.644c61.371,0 103.87,-39.219 103.87,-96.509c0,-50.74 -37.186,-89.961 -84.636,-89.961c-11.868,0 -18.825,1.635 -31.921,6.946l64.659,-83.027l-37.649,-28.223Zm-13.505,146.793c28.238,0 49.929,22.508 49.929,51.565c0,27.828 -22.509,50.337 -49.929,50.337c-28.647,0 -50.746,-22.509 -50.746,-51.156c0,-28.238 22.509,-50.746 50.746,-50.746Z" style="fill:#fff;fill-rule:nonzero;"/></svg>