<?xml version="1.0" encoding="UTF-8" standalone="no"?><!DOCTYPE svg PUBLIC "-//W3C//DTD SVG 1.1//EN" "http://www.w3.org/Graphics/SVG/1.1/DTD/svg11.dtd"><svg width="100%" height="100%" viewBox="0 0 1024 1024" version="1.1" xmlns="http://www.w3.org/2000/svg" xmlns:xlink="http://www.w3.org/1999/xlink" xml:space="preserve" xmlns:serif="http://www.serif.com/" style="fill-rule:evenodd;clip-rule:evenodd;stroke-linecap:round;stroke-linejoin:round;stroke-miterlimit:1.5;"><path d="M288.183,332.278c0,-18.061 -14.663,-32.724 -32.724,-32.724l-186.953,0c-18.061,0 -32.724,14.663 -32.724,32.724c0,18.061 14.663,32.724 32.724,32.724l186.953,0c18.061,0 32.724,-14.663 32.724,-32.724Z" style="stroke:#000;stroke-width:10px;"/><path d="M288.183,512c0,-18.061 -14.663,-32.724 -32.724,-32.724l-186.953,0c-18.061,0 -32.724,14.663 -32.724,32.724c0,18.061 14.663,32.724 32.724,32.724l186.953,0c18.061,0 32.724,-14.663 32.724,-32.724Z" style="stroke:#000;stroke-width:10px;"/><path d="M288.183,691.722c0,-18.061 -14.663,-32.724 -32.724,-32.724l-186.953,0c-18.061,0 -32.724,14.663 -32.724,32.724c0,18.061 14.663,32.724 32.724,32.724l186.953,0c18.061,0 32.724,-14.663 32.724,-32.724Z" style="stroke:#000;stroke-width:10px;"/><path d="M988.218,332.278c0,-18.061 -14.663,-32.724 -32.724,-32.724l-186.953,0c-18.061,0 -32.724,14.663 -32.724,32.724c0,18.061 14.663,32.724 32.724,32.724l186.953,0c18.061,0 32.724,-14.663 32.724,-32.724Z" style="stroke:#000;stroke-width:10px;"/><path d="M988.218,512c0,-18.061 -14.663,-32.724 -32.724,-32.724l-186.953,0c-18.061,0 -32.724,14.663 -32.724,32.724c0,18.061 14.663,32.724 32.724,32.724l186.953,0c18.061,0 32.724,-14.663 32.724,-32.724Z" style="stroke:#000;stroke-width:10px;"/><path d="M988.218,691.722c0,-18.061 -14.663,-32.724 -32.724,-32.724l-186.953,0c-18.061,0 -32.724,14.663 -32.724,32.724c0,18.061 14.663,32.724 32.724,32.724l186.953,0c18.061,0 32.724,-14.663 32.724,-32.724Z" style="stroke:#000;stroke-width:10px;"/><path d="M691.722,988.218c18.061,0 32.724,-14.663 32.724,-32.724l0,-186.953c0,-18.061 -14.663,-32.724 -32.724,-32.724c-18.061,0 -32.724,14.663 -32.724,32.724l0,186.953c0,18.061 14.663,32.724 32.724,32.724Z" style="stroke:#000;stroke-width:10px;"/><path d="M512,988.218c18.061,0 32.724,-14.663 32.724,-32.724l0,-186.953c0,-18.061 -14.663,-32.724 -32.724,-32.724c-18.061,0 -32.724,14.663 -32.724,32.724l0,186.953c0,18.061 14.663,32.724 32.724,32.724Z" style="stroke:#000;stroke-width:10px;"/><path d="M332.278,988.218c18.061,0 32.724,-14.663 32.724,-32.724l0,-186.953c0,-18.061 -14.663,-32.724 -32.724,-32.724c-18.061,0 -32.724,14.663 -32.724,32.724l0,186.953c0,18.061 14.663,32.724 32.724,32.724Z" style="stroke:#000;stroke-width:10px;"/><path d="M691.722,288.183c18.061,0 32.724,-14.663 32.724,-32.724l0,-186.953c0,-18.061 -14.663,-32.724 -32.724,-32.724c-18.061,0 -32.724,14.663 -32.724,32.724l0,186.953c0,18.061 14.663,32.724 32.724,32.724Z" style="stroke:#000;stroke-width:10px;"/><path d="M512,288.183c18.061,0 32.724,-14.663 32.724,-32.724l0,-186.953c0,-18.061 -14.663,-32.724 -32.724,-32.724c-18.061,0 -32.724,14.663 -32.724,32.724l0,186.953c0,18.061 14.663,32.724 32.724,32.724Z" style="stroke:#000;stroke-width:10px;"/><path d="M332.278,288.183c18.061,0 32.724,-14.663 32.724,-32.724l0,-186.953c0,-18.061 -14.663,-32.724 -32.724,-32.724c-18.061,0 -32.724,14.663 -32.724,32.724l0,186.953c0,18.061 14.663,32.724 32.724,32.724Z" style="stroke:#000;stroke-width:10px;"/><path d="M828.154,227.461c0,-17.449 -14.166,-31.615 -31.615,-31.615l-569.078,0c-17.449,0 -31.615,14.166 -31.615,31.615l0,569.078c0,17.449 14.166,31.615 31.615,31.615l569.078,0c17.449,0 31.615,-14.166 31.615,-31.615l0,-569.078Z" style="stroke:#000;stroke-width:1px;"/><rect x="288.183" y="288.183" width="447.634" height="447.634" style="fill:none;stroke:#fff;stroke-width:25px;"/><path d="M511.821,605.695l47.854,-50.325c34.735,-36.824 49.446,-65.055 49.446,-95.332c0,-50.721 -41.273,-87.903 -96.482,-87.903c-54.811,0 -91.624,35.547 -95.306,91.994l56.448,0c1.227,-28.231 16.361,-45.006 40.494,-45.006c23.315,0 41.722,18.002 41.722,41.324c0,22.912 -13.089,43.779 -62.992,100.242l-80.171,91.176l198.332,0l0,-46.17l-99.345,0Z" style="fill:#fff;fill-rule:nonzero;"/></svg>