<?xml version="1.0" encoding="UTF-8" standalone="no"?><!DOCTYPE svg PUBLIC "-//W3C//DTD SVG 1.1//EN" "http://www.w3.org/Graphics/SVG/1.1/DTD/svg11.dtd"><svg width="100%" height="100%" viewBox="0 0 1024 1024" version="1.1" xmlns="http://www.w3.org/2000/svg" xmlns:xlink="http://www.w3.org/1999/xlink" xml:space="preserve" xmlns:serif="http://www.serif.com/" style="fill-rule:evenodd;clip-rule:evenodd;stroke-linecap:round;stroke-linejoin:round;stroke-miterlimit:1.5;"><path d="M288.183,332.278c0,-18.061 -14.663,-32.724 -32.724,-32.724l-186.953,0c-18.061,0 -32.724,14.663 -32.724,32.724c0,18.061 14.663,32.724 32.724,32.724l186.953,0c18.061,0 32.724,-14.663 32.724,-32.724Z" style="stroke:#000;stroke-width:10px;"/><path d="M288.183,512c0,-18.061 -14.663,-32.724 -32.724,-32.724l-186.953,0c-18.061,0 -32.724,14.663 -32.724,32.724c0,18.061 14.663,32.724 32.724,32.724l186.953,0c18.061,0 32.724,-14.663 32.724,-32.724Z" style="stroke:#000;stroke-width:10px;"/><path d="M288.183,691.722c0,-18.061 -14.663,-32.724 -32.724,-32.724l-186.953,0c-18.061,0 -32.724,14.663 -32.724,32.724c0,18.061 14.663,32.724 32.724,32.724l186.953,0c18.061,0 32.724,-14.663 32.724,-32.724Z" style="stroke:#000;stroke-width:10px;"/><path d="M988.218,332.278c0,-18.061 -14.663,-32.724 -32.724,-32.724l-186.953,0c-18.061,0 -32.724,14.663 -32.724,32.724c0,18.061 14.663,32.724 32.724,32.724l186.953,0c18.061,0 32.724,-14.663 32.724,-32.724Z" style="stroke:#000;stroke-width:10px;"/><path d="M988.218,512c0,-18.061 -14.663,-32.724 -32.724,-32.724l-186.953,0c-18.061,0 -32.724,14.663 -32.724,32.724c0,18.061 14.663,32.724 32.724,32.724l186.953,0c18.061,0 32.724,-14.663 32.724,-32.724Z" style="stroke:#000;stroke-width:10px;"/><path d="M988.218,691.722c0,-18.061 -14.663,-32.724 -32.724,-32.724l-186.953,0c-18.061,0 -32.724,14.663 -32.724,32.724c0,18.061 14.663,32.724 32.724,32.724l186.953,0c18.061,0 32.724,-14.663 32.724,-32.724Z" style="stroke:#000;stroke-width:10px;"/><path d="M691.722,988.218c18.061,0 32.724,-14.663 32.724,-32.724l0,-186.953c0,-18.061 -14.663,-32.724 -32.724,-32.724c-18.061,0 -32.724,14.663 -32.724,32.724l0,186.953c0,18.061 14.663,32.724 32.724,32.724Z" style="stroke:#000;stroke-width:10px;"/><path d="M512,988.218c18.061,0 32.724,-14.663 32.724,-32.724l0,-186.953c0,-18.061 -14.663,-32.724 -32.724,-32.724c-18.061,0 -32.724,14.663 -32.724,32.724l0,186.953c0,18.061 14.663,32.724 32.724,32.724Z" style="stroke:#000;stroke-width:10px;"/><path d="M332.278,988.218c18.061,0 32.724,-14.663 32.724,-32.724l0,-186.953c0,-18.061 -14.663,-32.724 -32.724,-32.724c-18.061,0 -32.724,14.663 -32.724,32.724l0,186.953c0,18.061 14.663,32.724 32.724,32.724Z" style="stroke:#000;stroke-width:10px;"/><path d="M691.722,288.183c18.061,0 32.724,-14.663 32.724,-32.724l0,-186.953c0,-18.061 -14.663,-32.724 -32.724,-32.724c-18.061,0 -32.724,14.663 -32.724,32.724l0,186.953c0,18.061 14.663,32.724 32.724,32.724Z" style="stroke:#000;stroke-width:10px;"/><path d="M512,288.183c18.061,0 32.724,-14.663 32.724,-32.724l0,-186.953c0,-18.061 -14.663,-32.724 -32.724,-32.724c-18.061,0 -32.724,14.663 -32.724,32.724l0,186.953c0,18.061 14.663,32.724 32.724,32.724Z" style="stroke:#000;stroke-width:10px;"/><path d="M332.278,288.183c18.061,0 32.724,-14.663 32.724,-32.724l0,-186.953c0,-18.061 -14.663,-32.724 -32.724,-32.724c-18.061,0 -32.724,14.663 -32.724,32.724l0,186.953c0,18.061 14.663,32.724 32.724,32.724Z" style="stroke:#000;stroke-width:10px;"/><path d="M828.154,227.461c0,-17.449 -14.166,-31.615 -31.615,-31.615l-569.078,0c-17.449,0 -31.615,14.166 -31.615,31.615l0,569.078c0,17.449 14.166,31.615 31.615,31.615l569.078,0c17.449,0 31.615,-14.166 31.615,-31.615l0,-569.078Z" style="stroke:#000;stroke-width:1px;"/><rect x="288.183" y="288.183" width="447.634" height="447.634" style="fill:none;stroke:#fff;stroke-width:25px;"/><path d="M587.237,560.087l0,-186.93l-47.808,0l-134.98,205.724l0,23.695l133.346,0l0,48.267l49.442,0l0,-48.267l32.314,0l0,-42.489l-32.314,0Zm-49.442,0l-70.355,0l70.355,-108.426l0,108.426Z" style="fill:#fff;fill-rule:nonzero;"/></svg>