<?xml version="1.0" encoding="UTF-8" standalone="no"?><!DOCTYPE svg PUBLIC "-//W3C//DTD SVG 1.1//EN" "http://www.w3.org/Graphics/SVG/1.1/DTD/svg11.dtd"><svg width="100%" height="100%" viewBox="0 0 1024 1024" version="1.1" xmlns="http://www.w3.org/2000/svg" xmlns:xlink="http://www.w3.org/1999/xlink" xml:space="preserve" xmlns:serif="http://www.serif.com/" style="fill-rule:evenodd;clip-rule:evenodd;stroke-linecap:round;stroke-linejoin:round;stroke-miterlimit:1.5;"><path d="M288.183,332.278c0,-18.061 -14.663,-32.724 -32.724,-32.724l-186.953,0c-18.061,0 -32.724,14.663 -32.724,32.724c0,18.061 14.663,32.724 32.724,32.724l186.953,0c18.061,0 32.724,-14.663 32.724,-32.724Z" style="stroke:#000;stroke-width:10px;"/><path d="M288.183,512c0,-18.061 -14.663,-32.724 -32.724,-32.724l-186.953,0c-18.061,0 -32.724,14.663 -32.724,32.724c0,18.061 14.663,32.724 32.724,32.724l186.953,0c18.061,0 32.724,-14.663 32.724,-32.724Z" style="stroke:#000;stroke-width:10px;"/><path d="M288.183,691.722c0,-18.061 -14.663,-32.724 -32.724,-32.724l-186.953,0c-18.061,0 -32.724,14.663 -32.724,32.724c0,18.061 14.663,32.724 32.724,32.724l186.953,0c18.061,0 32.724,-14.663 32.724,-32.724Z" style="stroke:#000;stroke-width:10px;"/><path d="M988.218,332.278c0,-18.061 -14.663,-32.724 -32.724,-32.724l-186.953,0c-18.061,0 -32.724,14.663 -32.724,32.724c0,18.061 14.663,32.724 32.724,32.724l186.953,0c18.061,0 32.724,-14.663 32.724,-32.724Z" style="stroke:#000;stroke-width:10px;"/><path d="M988.218,512c0,-18.061 -14.663,-32.724 -32.724,-32.724l-186.953,0c-18.061,0 -32.724,14.663 -32.724,32.724c0,18.061 14.663,32.724 32.724,32.724l186.953,0c18.061,0 32.724,-14.663 32.724,-32.724Z" style="stroke:#000;stroke-width:10px;"/><path d="M988.218,691.722c0,-18.061 -14.663,-32.724 -32.724,-32.724l-186.953,0c-18.061,0 -32.724,14.663 -32.724,32.724c0,18.061 14.663,32.724 32.724,32.724l186.953,0c18.061,0 32.724,-14.663 32.724,-32.724Z" style="stroke:#000;stroke-width:10px;"/><path d="M691.722,988.218c18.061,0 32.724,-14.663 32.724,-32.724l0,-186.953c0,-18.061 -14.663,-32.724 -32.724,-32.724c-18.061,0 -32.724,14.663 -32.724,32.724l0,186.953c0,18.061 14.663,32.724 32.724,32.724Z" style="stroke:#000;stroke-width:10px;"/><path d="M512,988.218c18.061,0 32.724,-14.663 32.724,-32.724l0,-186.953c0,-18.061 -14.663,-32.724 -32.724,-32.724c-18.061,0 -32.724,14.663 -32.724,32.724l0,186.953c0,18.061 14.663,32.724 32.724,32.724Z" style="stroke:#000;stroke-width:10px;"/><path d="M332.278,988.218c18.061,0 32.724,-14.663 32.724,-32.724l0,-186.953c0,-18.061 -14.663,-32.724 -32.724,-32.724c-18.061,0 -32.724,14.663 -32.724,32.724l0,186.953c0,18.061 14.663,32.724 32.724,32.724Z" style="stroke:#000;stroke-width:10px;"/><path d="M691.722,288.183c18.061,0 32.724,-14.663 32.724,-32.724l0,-186.953c0,-18.061 -14.663,-32.724 -32.724,-32.724c-18.061,0 -32.724,14.663 -32.724,32.724l0,186.953c0,18.061 14.663,32.724 32.724,32.724Z" style="stroke:#000;stroke-width:10px;"/><path d="M512,288.183c18.061,0 32.724,-14.663 32.724,-32.724l0,-186.953c0,-18.061 -14.663,-32.724 -32.724,-32.724c-18.061,0 -32.724,14.663 -32.724,32.724l0,186.953c0,18.061 14.663,32.724 32.724,32.724Z" style="stroke:#000;stroke-width:10px;"/><path d="M332.278,288.183c18.061,0 32.724,-14.663 32.724,-32.724l0,-186.953c0,-18.061 -14.663,-32.724 -32.724,-32.724c-18.061,0 -32.724,14.663 -32.724,32.724l0,186.953c0,18.061 14.663,32.724 32.724,32.724Z" style="stroke:#000;stroke-width:10px;"/><path d="M828.154,227.461c0,-17.449 -14.166,-31.615 -31.615,-31.615l-569.078,0c-17.449,0 -31.615,14.166 -31.615,31.615l0,569.078c0,17.449 14.166,31.615 31.615,31.615l569.078,0c17.449,0 31.615,-14.166 31.615,-31.615l0,-569.078Z" style="stroke:#000;stroke-width:1px;"/><rect x="288.183" y="288.183" width="447.634" height="447.634" style="fill:none;stroke:#fff;stroke-width:25px;"/><path d="M465.962,505.66c-14.303,5.72 -20.432,9.806 -28.196,16.751c-13.077,13.088 -20.433,31.915 -20.433,51.56c0,47.054 40.456,81.371 96.099,81.371c54.005,0 93.235,-34.317 93.235,-82.189c0,-31.924 -16.755,-54.827 -49.038,-67.493c27.781,-13.482 40.448,-32.296 40.448,-59.72c0,-45.011 -35.14,-77.282 -84.645,-77.282c-50.325,0 -86.691,32.271 -86.691,76.873c0,27.015 13.075,47.055 39.226,60.129l-0.005,0Zm46.242,-98.195c21.284,0 38.067,17.191 38.067,38.475c0,21.285 -16.783,38.066 -37.657,38.066c-21.285,0 -38.067,-17.191 -38.067,-38.475c0,-20.875 17.192,-38.066 37.657,-38.066Zm-0.409,120.257c23.33,0 41.748,18.828 41.748,42.566c0,23.738 -18.418,42.974 -41.339,42.974c-23.329,0 -41.747,-19.236 -41.747,-43.383c0,-23.329 18.827,-42.157 41.338,-42.157Z" style="fill:#fff;fill-rule:nonzero;"/></svg>