<?xml version="1.0" encoding="UTF-8" standalone="no"?><!DOCTYPE svg PUBLIC "-//W3C//DTD SVG 1.1//EN" "http://www.w3.org/Graphics/SVG/1.1/DTD/svg11.dtd"><svg width="100%" height="100%" viewBox="0 0 900 400" version="1.1" xmlns="http://www.w3.org/2000/svg" xmlns:xlink="http://www.w3.org/1999/xlink" xml:space="preserve" xmlns:serif="http://www.serif.com/" style="fill-rule:evenodd;clip-rule:evenodd;stroke-linecap:round;stroke-linejoin:round;stroke-miterlimit:1.5;"><path d="M900,32c0,-17.661 -14.339,-32 -32,-32l-836,0c-17.661,0 -32,14.339 -32,32l0,336c0,17.661 14.339,32 32,32l836,0c17.661,0 32,-14.339 32,-32l0,-336Z"/><path d="M962,163.775l0,-59.859l-55.582,0c-16.519,0 -29.929,13.411 -29.929,29.93c0,16.518 13.41,29.929 29.929,29.929l55.582,0Z" style="fill:#fff;"/><path d="M678.876,357.244c0,-8.849 -7.184,-16.033 -16.033,-16.033c-8.849,0 -16.034,7.184 -16.034,16.033l0,59.578l32.067,0l0,-59.578Z" style="fill:#fff;"/><g><rect x="48.417" y="356" width="14.5" height="42" style="fill:#fff;"/><rect x="67.75" y="356" width="14.5" height="42" style="fill:#fff;"/><rect x="87.083" y="356" width="14.5" height="42" style="fill:#fff;"/><rect x="106.417" y="356" width="14.5" height="42" style="fill:#fff;"/><rect x="125.75" y="356" width="14.5" height="42" style="fill:#fff;"/><rect x="145.083" y="356" width="14.5" height="42" style="fill:#fff;"/><rect x="164.417" y="356" width="14.5" height="42" style="fill:#fff;"/><rect x="183.75" y="356" width="14.5" height="42" style="fill:#fff;"/><rect x="203.083" y="356" width="14.5" height="42" style="fill:#fff;"/><rect x="222.417" y="356" width="14.5" height="42" style="fill:#fff;"/><rect x="241.75" y="356" width="14.5" height="42" style="fill:#fff;"/><rect x="261.083" y="356" width="14.5" height="42" style="fill:#fff;"/><rect x="280.417" y="356" width="14.5" height="42" style="fill:#fff;"/><rect x="299.75" y="356" width="14.5" height="42" style="fill:#fff;"/><rect x="319.083" y="356" width="14.5" height="42" style="fill:#fff;"/><rect x="338.417" y="356" width="14.5" height="42" style="fill:#fff;"/><rect x="682.417" y="356" width="14.5" height="42" style="fill:#fff;"/><rect x="701.75" y="356" width="14.5" height="42" style="fill:#fff;"/><rect x="721.083" y="356" width="14.5" height="42" style="fill:#fff;"/><rect x="740.417" y="356" width="14.5" height="42" style="fill:#fff;"/><rect x="759.75" y="356" width="14.5" height="42" style="fill:#fff;"/><rect x="779.083" y="356" width="14.5" height="42" style="fill:#fff;"/><rect x="798.417" y="356" width="14.5" height="42" style="fill:#fff;"/><rect x="817.75" y="356" width="14.5" height="42" style="fill:#fff;"/><rect x="837.083" y="356" width="14.5" height="42" style="fill:#fff;"/><rect x="357.75" y="356" width="14.5" height="42" style="fill:#fff;"/><rect x="377.083" y="356" width="14.5" height="42" style="fill:#fff;"/><rect x="396.417" y="356" width="14.5" height="42" style="fill:#fff;"/><rect x="415.75" y="356" width="14.5" height="42" style="fill:#fff;"/><rect x="435.083" y="356" width="14.5" height="42" style="fill:#fff;"/><rect x="454.417" y="356" width="14.5" height="42" style="fill:#fff;"/><rect x="473.75" y="356" width="14.5" height="42" style="fill:#fff;"/><rect x="493.083" y="356" width="14.5" height="42" style="fill:#fff;"/><rect x="512.417" y="356" width="14.5" height="42" style="fill:#fff;"/><rect x="531.75" y="356" width="14.5" height="42" style="fill:#fff;"/><rect x="551.083" y="356" width="14.5" height="42" style="fill:#fff;"/><rect x="570.417" y="356" width="14.5" height="42" style="fill:#fff;"/><rect x="589.75" y="356" width="14.5" height="42" style="fill:#fff;"/><rect x="609.083" y="356" width="14.5" height="42" style="fill:#fff;"/><rect x="628.417" y="356" width="14.5" height="42" style="fill:#fff;"/></g><path d="M-6.418,163.775c16.519,0 29.929,-13.411 29.929,-29.929c0,-16.519 -13.41,-29.93 -29.929,-29.93l-25.653,0c-16.518,0 -29.929,13.411 -29.929,29.93c0,16.518 13.411,29.929 29.929,29.929l25.653,0Z" style="fill:#fff;"/><path d="M36.511,315.25c8.279,0 15,-6.721 15,-15c0,-8.279 -6.721,-15 -15,-15c-8.278,0 -15,6.721 -15,15c0,8.279 6.722,15 15,15Z" style="fill:#fff;"/><path d="M866.511,315.25c8.279,0 15,-6.721 15,-15c0,-8.279 -6.721,-15 -15,-15c-8.278,0 -15,6.721 -15,15c0,8.279 6.722,15 15,15Z" style="fill:#fff;"/><g><rect x="74.676" y="73.367" width="120" height="81.236" style="fill:none;stroke:#fff;stroke-width:13px;"/><rect x="705.324" y="73.367" width="120" height="81.236" style="fill:none;stroke:#fff;stroke-width:13px;"/><rect x="74.676" y="187.622" width="120" height="81.236" style="fill:none;stroke:#fff;stroke-width:13px;"/><rect x="705.324" y="187.622" width="120" height="81.236" style="fill:none;stroke:#fff;stroke-width:13px;"/></g><g transform="matrix(0.600475,0,0,0.600475,-33.9561,-111.732)"><path d="M486.403,401.098l0,179.74l42.136,0l0,-216.361l-73.282,0l0,36.621l31.146,0Z" style="fill:#fff;fill-rule:nonzero;"/><path d="M657.368,355.717l-65.873,87.917c-17.827,23.656 -27.227,47.668 -27.227,68.443c0,43.492 34.034,74.276 81.738,74.276c48.679,0 82.388,-31.108 82.388,-76.549c0,-40.246 -29.495,-71.355 -67.131,-71.355c-9.414,0 -14.932,1.297 -25.319,5.509l51.286,-65.854l-29.862,-22.387Zm-10.712,116.434c22.397,0 39.602,17.853 39.602,40.899c0,22.073 -17.854,39.927 -39.602,39.927c-22.723,0 -40.251,-17.854 -40.251,-40.576c0,-22.397 17.853,-40.25 40.251,-40.25Z" style="fill:#fff;fill-rule:nonzero;"/><path d="M872.445,465.053l0,36.622l50.937,0c-3.244,27.601 -25.955,45.786 -56.777,45.786c-40.555,0 -70.727,-31.498 -70.727,-73.658c0,-43.486 30.172,-75.625 71.052,-75.625c24.333,0 43.15,10.713 56.128,32.139l36.986,-19.803c-20.44,-33.402 -52.559,-50.903 -92.79,-50.903c-66.51,0 -114.811,47.982 -114.811,114.192c0,64.89 47.977,111.901 113.513,111.901c42.826,0 76.244,-20.094 94.088,-56.428c8.435,-16.561 11.031,-32.463 11.355,-64.223l-98.954,0Z" style="fill:#fff;fill-rule:nonzero;"/><path d="M1010.7,580.838l72.979,0c24.025,0 41.213,-5.185 53.854,-16.527c12.317,-11.018 19.124,-27.239 19.124,-44.445c0,-15.909 -5.834,-31.167 -15.558,-40.892c-6.807,-7.129 -13.614,-10.369 -28.201,-13.61c8.428,-5.184 11.994,-8.1 15.559,-12.965c4.844,-7.792 8.085,-19.156 8.085,-30.844c0,-17.857 -7.454,-34.718 -19.446,-44.116c-11.02,-8.749 -27.89,-12.962 -52.894,-12.962l-53.502,0l0,216.361Zm42.137,-126.167l0,-56.168l12.664,0c21.108,0 32.149,9.416 32.149,27.922c0,18.831 -11.041,28.246 -32.798,28.246l-12.015,0Zm0,92.141l0,-60.062l15.911,0c17.536,0 24.355,1.299 31.819,6.169c8.111,4.87 12.656,13.636 12.656,24.025c0,20.128 -13.636,29.868 -42.206,29.868l-18.18,0Z" style="fill:#fff;fill-rule:nonzero;"/></g></svg>