<?xml version="1.0" encoding="UTF-8" standalone="no"?><!DOCTYPE svg PUBLIC "-//W3C//DTD SVG 1.1//EN" "http://www.w3.org/Graphics/SVG/1.1/DTD/svg11.dtd"><svg width="100%" height="100%" viewBox="0 0 900 400" version="1.1" xmlns="http://www.w3.org/2000/svg" xmlns:xlink="http://www.w3.org/1999/xlink" xml:space="preserve" xmlns:serif="http://www.serif.com/" style="fill-rule:evenodd;clip-rule:evenodd;stroke-linecap:round;stroke-linejoin:round;stroke-miterlimit:1.5;"><path d="M900,32c0,-17.661 -14.339,-32 -32,-32l-836,0c-17.661,0 -32,14.339 -32,32l0,336c0,17.661 14.339,32 32,32l836,0c17.661,0 32,-14.339 32,-32l0,-336Z"/><path d="M962,163.775l0,-59.859l-55.582,0c-16.519,0 -29.929,13.411 -29.929,29.93c0,16.518 13.41,29.929 29.929,29.929l55.582,0Z" style="fill:#fff;"/><path d="M678.876,357.244c0,-8.849 -7.184,-16.033 -16.033,-16.033c-8.849,0 -16.034,7.184 -16.034,16.033l0,59.578l32.067,0l0,-59.578Z" style="fill:#fff;"/><g><rect x="48.417" y="356" width="14.5" height="42" style="fill:#fff;"/><rect x="67.75" y="356" width="14.5" height="42" style="fill:#fff;"/><rect x="87.083" y="356" width="14.5" height="42" style="fill:#fff;"/><rect x="106.417" y="356" width="14.5" height="42" style="fill:#fff;"/><rect x="125.75" y="356" width="14.5" height="42" style="fill:#fff;"/><rect x="145.083" y="356" width="14.5" height="42" style="fill:#fff;"/><rect x="164.417" y="356" width="14.5" height="42" style="fill:#fff;"/><rect x="183.75" y="356" width="14.5" height="42" style="fill:#fff;"/><rect x="203.083" y="356" width="14.5" height="42" style="fill:#fff;"/><rect x="222.417" y="356" width="14.5" height="42" style="fill:#fff;"/><rect x="241.75" y="356" width="14.5" height="42" style="fill:#fff;"/><rect x="261.083" y="356" width="14.5" height="42" style="fill:#fff;"/><rect x="280.417" y="356" width="14.5" height="42" style="fill:#fff;"/><rect x="299.75" y="356" width="14.5" height="42" style="fill:#fff;"/><rect x="319.083" y="356" width="14.5" height="42" style="fill:#fff;"/><rect x="338.417" y="356" width="14.5" height="42" style="fill:#fff;"/><rect x="682.417" y="356" width="14.5" height="42" style="fill:#fff;"/><rect x="701.75" y="356" width="14.5" height="42" style="fill:#fff;"/><rect x="721.083" y="356" width="14.5" height="42" style="fill:#fff;"/><rect x="740.417" y="356" width="14.5" height="42" style="fill:#fff;"/><rect x="759.75" y="356" width="14.5" height="42" style="fill:#fff;"/><rect x="779.083" y="356" width="14.5" height="42" style="fill:#fff;"/><rect x="798.417" y="356" width="14.5" height="42" style="fill:#fff;"/><rect x="817.75" y="356" width="14.5" height="42" style="fill:#fff;"/><rect x="837.083" y="356" width="14.5" height="42" style="fill:#fff;"/><rect x="357.75" y="356" width="14.5" height="42" style="fill:#fff;"/><rect x="377.083" y="356" width="14.5" height="42" style="fill:#fff;"/><rect x="396.417" y="356" width="14.5" height="42" style="fill:#fff;"/><rect x="415.75" y="356" width="14.5" height="42" style="fill:#fff;"/><rect x="435.083" y="356" width="14.5" height="42" style="fill:#fff;"/><rect x="454.417" y="356" width="14.5" height="42" style="fill:#fff;"/><rect x="473.75" y="356" width="14.5" height="42" style="fill:#fff;"/><rect x="493.083" y="356" width="14.5" height="42" style="fill:#fff;"/><rect x="512.417" y="356" width="14.5" height="42" style="fill:#fff;"/><rect x="531.75" y="356" width="14.5" height="42" style="fill:#fff;"/><rect x="551.083" y="356" width="14.5" height="42" style="fill:#fff;"/><rect x="570.417" y="356" width="14.5" height="42" style="fill:#fff;"/><rect x="589.75" y="356" width="14.5" height="42" style="fill:#fff;"/><rect x="609.083" y="356" width="14.5" height="42" style="fill:#fff;"/><rect x="628.417" y="356" width="14.5" height="42" style="fill:#fff;"/></g><path d="M-6.418,163.775c16.519,0 29.929,-13.411 29.929,-29.929c0,-16.519 -13.41,-29.93 -29.929,-29.93l-25.653,0c-16.518,0 -29.929,13.411 -29.929,29.93c0,16.518 13.411,29.929 29.929,29.929l25.653,0Z" style="fill:#fff;"/><path d="M36.511,315.25c8.279,0 15,-6.721 15,-15c0,-8.279 -6.721,-15 -15,-15c-8.278,0 -15,6.721 -15,15c0,8.279 6.722,15 15,15Z" style="fill:#fff;"/><path d="M866.511,315.25c8.279,0 15,-6.721 15,-15c0,-8.279 -6.721,-15 -15,-15c-8.278,0 -15,6.721 -15,15c0,8.279 6.722,15 15,15Z" style="fill:#fff;"/><g><rect x="74.676" y="73.367" width="120" height="81.236" style="fill:none;stroke:#fff;stroke-width:13px;"/><rect x="705.324" y="73.367" width="120" height="81.236" style="fill:none;stroke:#fff;stroke-width:13px;"/><rect x="74.676" y="187.622" width="120" height="81.236" style="fill:none;stroke:#fff;stroke-width:13px;"/><rect x="705.324" y="187.622" width="120" height="81.236" style="fill:none;stroke:#fff;stroke-width:13px;"/></g><path d="M318.023,214.277l22.792,-23.969c16.544,-17.539 23.55,-30.985 23.55,-45.405c0,-24.158 -19.657,-41.867 -45.952,-41.867c-26.106,0 -43.639,16.931 -45.393,43.816l26.885,0c0.585,-13.447 7.793,-21.436 19.287,-21.436c11.105,0 19.871,8.574 19.871,19.682c0,10.913 -6.234,20.851 -30.001,47.743l-38.185,43.426l94.463,0l0,-21.99l-47.317,0Z" style="fill:#fff;fill-rule:nonzero;"/><path d="M458.462,166.742l0,21.99l30.587,0c-1.948,16.574 -15.586,27.493 -34.093,27.493c-24.353,0 -42.471,-18.914 -42.471,-44.229c0,-26.113 18.118,-45.411 42.665,-45.411c14.612,0 25.911,6.432 33.704,19.298l22.209,-11.891c-12.273,-20.057 -31.56,-30.566 -55.718,-30.566c-39.937,0 -68.941,28.812 -68.941,68.57c0,38.964 28.809,67.193 68.162,67.193c25.716,0 45.782,-12.066 56.497,-33.883c5.065,-9.945 6.624,-19.493 6.819,-38.564l-59.42,0Z" style="fill:#fff;fill-rule:nonzero;"/><path d="M541.479,236.267l43.822,0c14.426,0 24.747,-3.113 32.338,-9.924c7.396,-6.616 11.484,-16.356 11.484,-26.688c0,-9.553 -3.504,-18.715 -9.343,-24.555c-4.087,-4.28 -8.174,-6.226 -16.933,-8.172c5.06,-3.113 7.201,-4.864 9.342,-7.785c2.909,-4.679 4.855,-11.503 4.855,-18.521c0,-10.723 -4.476,-20.848 -11.677,-26.491c-6.617,-5.253 -16.747,-7.783 -31.761,-7.783l-32.127,0l0,129.919Zm25.302,-75.76l0,-33.727l7.605,0c12.674,0 19.304,5.653 19.304,16.766c0,11.308 -6.63,16.961 -19.694,16.961l-7.215,0Zm0,55.329l0,-36.066l9.555,0c10.529,0 14.624,0.78 19.106,3.704c4.87,2.924 7.6,8.188 7.6,14.426c0,12.087 -8.188,17.936 -25.344,17.936l-10.917,0Z" style="fill:#fff;fill-rule:nonzero;"/></svg>