<?xml version="1.0" encoding="UTF-8" standalone="no"?><!DOCTYPE svg PUBLIC "-//W3C//DTD SVG 1.1//EN" "http://www.w3.org/Graphics/SVG/1.1/DTD/svg11.dtd"><svg width="100%" height="100%" viewBox="0 0 900 400" version="1.1" xmlns="http://www.w3.org/2000/svg" xmlns:xlink="http://www.w3.org/1999/xlink" xml:space="preserve" xmlns:serif="http://www.serif.com/" style="fill-rule:evenodd;clip-rule:evenodd;stroke-linecap:round;stroke-linejoin:round;stroke-miterlimit:1.5;"><path d="M900,32c0,-17.661 -14.339,-32 -32,-32l-836,0c-17.661,0 -32,14.339 -32,32l0,336c0,17.661 14.339,32 32,32l836,0c17.661,0 32,-14.339 32,-32l0,-336Z"/><path d="M962,163.775l0,-59.859l-55.582,0c-16.519,0 -29.929,13.411 -29.929,29.93c0,16.518 13.41,29.929 29.929,29.929l55.582,0Z" style="fill:#fff;"/><path d="M678.876,357.244c0,-8.849 -7.184,-16.033 -16.033,-16.033c-8.849,0 -16.034,7.184 -16.034,16.033l0,59.578l32.067,0l0,-59.578Z" style="fill:#fff;"/><g><rect x="48.417" y="356" width="14.5" height="42" style="fill:#fff;"/><rect x="67.75" y="356" width="14.5" height="42" style="fill:#fff;"/><rect x="87.083" y="356" width="14.5" height="42" style="fill:#fff;"/><rect x="106.417" y="356" width="14.5" height="42" style="fill:#fff;"/><rect x="125.75" y="356" width="14.5" height="42" style="fill:#fff;"/><rect x="145.083" y="356" width="14.5" height="42" style="fill:#fff;"/><rect x="164.417" y="356" width="14.5" height="42" style="fill:#fff;"/><rect x="183.75" y="356" width="14.5" height="42" style="fill:#fff;"/><rect x="203.083" y="356" width="14.5" height="42" style="fill:#fff;"/><rect x="222.417" y="356" width="14.5" height="42" style="fill:#fff;"/><rect x="241.75" y="356" width="14.5" height="42" style="fill:#fff;"/><rect x="261.083" y="356" width="14.5" height="42" style="fill:#fff;"/><rect x="280.417" y="356" width="14.5" height="42" style="fill:#fff;"/><rect x="299.75" y="356" width="14.5" height="42" style="fill:#fff;"/><rect x="319.083" y="356" width="14.5" height="42" style="fill:#fff;"/><rect x="338.417" y="356" width="14.5" height="42" style="fill:#fff;"/><rect x="682.417" y="356" width="14.5" height="42" style="fill:#fff;"/><rect x="701.75" y="356" width="14.5" height="42" style="fill:#fff;"/><rect x="721.083" y="356" width="14.5" height="42" style="fill:#fff;"/><rect x="740.417" y="356" width="14.5" height="42" style="fill:#fff;"/><rect x="759.75" y="356" width="14.5" height="42" style="fill:#fff;"/><rect x="779.083" y="356" width="14.5" height="42" style="fill:#fff;"/><rect x="798.417" y="356" width="14.5" height="42" style="fill:#fff;"/><rect x="817.75" y="356" width="14.5" height="42" style="fill:#fff;"/><rect x="837.083" y="356" width="14.5" height="42" style="fill:#fff;"/><rect x="357.75" y="356" width="14.5" height="42" style="fill:#fff;"/><rect x="377.083" y="356" width="14.5" height="42" style="fill:#fff;"/><rect x="396.417" y="356" width="14.5" height="42" style="fill:#fff;"/><rect x="415.75" y="356" width="14.5" height="42" style="fill:#fff;"/><rect x="435.083" y="356" width="14.5" height="42" style="fill:#fff;"/><rect x="454.417" y="356" width="14.5" height="42" style="fill:#fff;"/><rect x="473.75" y="356" width="14.5" height="42" style="fill:#fff;"/><rect x="493.083" y="356" width="14.5" height="42" style="fill:#fff;"/><rect x="512.417" y="356" width="14.5" height="42" style="fill:#fff;"/><rect x="531.75" y="356" width="14.5" height="42" style="fill:#fff;"/><rect x="551.083" y="356" width="14.5" height="42" style="fill:#fff;"/><rect x="570.417" y="356" width="14.5" height="42" style="fill:#fff;"/><rect x="589.75" y="356" width="14.5" height="42" style="fill:#fff;"/><rect x="609.083" y="356" width="14.5" height="42" style="fill:#fff;"/><rect x="628.417" y="356" width="14.5" height="42" style="fill:#fff;"/></g><path d="M-6.418,163.775c16.519,0 29.929,-13.411 29.929,-29.929c0,-16.519 -13.41,-29.93 -29.929,-29.93l-25.653,0c-16.518,0 -29.929,13.411 -29.929,29.93c0,16.518 13.411,29.929 29.929,29.929l25.653,0Z" style="fill:#fff;"/><path d="M36.511,315.25c8.279,0 15,-6.721 15,-15c0,-8.279 -6.721,-15 -15,-15c-8.278,0 -15,6.721 -15,15c0,8.279 6.722,15 15,15Z" style="fill:#fff;"/><path d="M866.511,315.25c8.279,0 15,-6.721 15,-15c0,-8.279 -6.721,-15 -15,-15c-8.278,0 -15,6.721 -15,15c0,8.279 6.722,15 15,15Z" style="fill:#fff;"/><g><rect x="74.676" y="73.367" width="120" height="81.236" style="fill:none;stroke:#fff;stroke-width:13px;"/><rect x="705.324" y="73.367" width="120" height="81.236" style="fill:none;stroke:#fff;stroke-width:13px;"/><rect x="74.676" y="187.622" width="120" height="81.236" style="fill:none;stroke:#fff;stroke-width:13px;"/><rect x="705.324" y="187.622" width="120" height="81.236" style="fill:none;stroke:#fff;stroke-width:13px;"/></g><path d="M358.326,192.847l0,-89.032l-22.77,0l-64.289,97.983l0,11.286l63.51,0l0,22.988l23.549,0l0,-22.988l15.391,0l0,-20.237l-15.391,0Zm-23.549,0l-33.508,0l33.508,-51.642l0,51.642Z" style="fill:#fff;fill-rule:nonzero;"/><path d="M458.073,166.547l0,21.99l30.586,0c-1.948,16.574 -15.585,27.493 -34.093,27.493c-24.352,0 -42.47,-18.914 -42.47,-44.229c0,-26.113 18.118,-45.411 42.665,-45.411c14.611,0 25.911,6.433 33.703,19.298l22.21,-11.891c-12.274,-20.057 -31.561,-30.566 -55.718,-30.566c-39.938,0 -68.941,28.812 -68.941,68.57c0,38.965 28.808,67.194 68.161,67.194c25.716,0 45.783,-12.066 56.498,-33.884c5.065,-9.945 6.623,-19.493 6.818,-38.564l-59.419,0Z" style="fill:#fff;fill-rule:nonzero;"/><path d="M541.089,236.072l43.823,0c14.426,0 24.747,-3.113 32.338,-9.924c7.396,-6.616 11.483,-16.356 11.483,-26.688c0,-9.552 -3.503,-18.715 -9.342,-24.555c-4.088,-4.28 -8.175,-6.226 -16.934,-8.172c5.061,-3.113 7.202,-4.864 9.343,-7.785c2.908,-4.679 4.854,-11.503 4.854,-18.521c0,-10.723 -4.476,-20.847 -11.676,-26.49c-6.617,-5.254 -16.747,-7.784 -31.762,-7.784l-32.127,0l0,129.919Zm25.302,-75.759l0,-33.728l7.605,0c12.675,0 19.305,5.654 19.305,16.766c0,11.308 -6.63,16.962 -19.695,16.962l-7.215,0Zm0,55.328l0,-36.066l9.555,0c10.53,0 14.625,0.78 19.106,3.704c4.871,2.925 7.6,8.188 7.6,14.426c0,12.087 -8.188,17.936 -25.343,17.936l-10.918,0Z" style="fill:#fff;fill-rule:nonzero;"/></svg>