<?xml version="1.0" encoding="UTF-8" standalone="no"?><!DOCTYPE svg PUBLIC "-//W3C//DTD SVG 1.1//EN" "http://www.w3.org/Graphics/SVG/1.1/DTD/svg11.dtd"><svg width="100%" height="100%" viewBox="0 0 900 400" version="1.1" xmlns="http://www.w3.org/2000/svg" xmlns:xlink="http://www.w3.org/1999/xlink" xml:space="preserve" xmlns:serif="http://www.serif.com/" style="fill-rule:evenodd;clip-rule:evenodd;stroke-linecap:round;stroke-linejoin:round;stroke-miterlimit:1.5;"><path d="M900,32c0,-17.661 -14.339,-32 -32,-32l-836,0c-17.661,0 -32,14.339 -32,32l0,336c0,17.661 14.339,32 32,32l836,0c17.661,0 32,-14.339 32,-32l0,-336Z"/><path d="M962,163.775l0,-59.859l-55.582,0c-16.519,0 -29.929,13.411 -29.929,29.93c0,16.518 13.41,29.929 29.929,29.929l55.582,0Z" style="fill:#fff;"/><path d="M678.876,357.244c0,-8.849 -7.184,-16.033 -16.033,-16.033c-8.849,0 -16.034,7.184 -16.034,16.033l0,51.167l32.067,0l0,-51.167Z" style="fill:#fff;"/><g><rect x="48.417" y="356" width="14.5" height="42" style="fill:#fff;"/><rect x="67.75" y="356" width="14.5" height="42" style="fill:#fff;"/><rect x="87.083" y="356" width="14.5" height="42" style="fill:#fff;"/><rect x="106.417" y="356" width="14.5" height="42" style="fill:#fff;"/><rect x="125.75" y="356" width="14.5" height="42" style="fill:#fff;"/><rect x="145.083" y="356" width="14.5" height="42" style="fill:#fff;"/><rect x="164.417" y="356" width="14.5" height="42" style="fill:#fff;"/><rect x="183.75" y="356" width="14.5" height="42" style="fill:#fff;"/><rect x="203.083" y="356" width="14.5" height="42" style="fill:#fff;"/><rect x="222.417" y="356" width="14.5" height="42" style="fill:#fff;"/><rect x="241.75" y="356" width="14.5" height="42" style="fill:#fff;"/><rect x="261.083" y="356" width="14.5" height="42" style="fill:#fff;"/><rect x="280.417" y="356" width="14.5" height="42" style="fill:#fff;"/><rect x="299.75" y="356" width="14.5" height="42" style="fill:#fff;"/><rect x="319.083" y="356" width="14.5" height="42" style="fill:#fff;"/><rect x="338.417" y="356" width="14.5" height="42" style="fill:#fff;"/><rect x="682.417" y="356" width="14.5" height="42" style="fill:#fff;"/><rect x="701.75" y="356" width="14.5" height="42" style="fill:#fff;"/><rect x="721.083" y="356" width="14.5" height="42" style="fill:#fff;"/><rect x="740.417" y="356" width="14.5" height="42" style="fill:#fff;"/><rect x="759.75" y="356" width="14.5" height="42" style="fill:#fff;"/><rect x="779.083" y="356" width="14.5" height="42" style="fill:#fff;"/><rect x="798.417" y="356" width="14.5" height="42" style="fill:#fff;"/><rect x="817.75" y="356" width="14.5" height="42" style="fill:#fff;"/><rect x="837.083" y="356" width="14.5" height="42" style="fill:#fff;"/><rect x="357.75" y="356" width="14.5" height="42" style="fill:#fff;"/><rect x="377.083" y="356" width="14.5" height="42" style="fill:#fff;"/><rect x="396.417" y="356" width="14.5" height="42" style="fill:#fff;"/><rect x="415.75" y="356" width="14.5" height="42" style="fill:#fff;"/><rect x="435.083" y="356" width="14.5" height="42" style="fill:#fff;"/><rect x="454.417" y="356" width="14.5" height="42" style="fill:#fff;"/><rect x="473.75" y="356" width="14.5" height="42" style="fill:#fff;"/><rect x="493.083" y="356" width="14.5" height="42" style="fill:#fff;"/><rect x="512.417" y="356" width="14.5" height="42" style="fill:#fff;"/><rect x="531.75" y="356" width="14.5" height="42" style="fill:#fff;"/><rect x="551.083" y="356" width="14.5" height="42" style="fill:#fff;"/><rect x="570.417" y="356" width="14.5" height="42" style="fill:#fff;"/><rect x="589.75" y="356" width="14.5" height="42" style="fill:#fff;"/><rect x="609.083" y="356" width="14.5" height="42" style="fill:#fff;"/><rect x="628.417" y="356" width="14.5" height="42" style="fill:#fff;"/></g><path d="M-6.418,163.775c16.519,0 29.929,-13.411 29.929,-29.929c0,-16.519 -13.41,-29.93 -29.929,-29.93l-25.653,0c-16.518,0 -29.929,13.411 -29.929,29.93c0,16.518 13.411,29.929 29.929,29.929l25.653,0Z" style="fill:#fff;"/><path d="M36.511,315.25c8.279,0 15,-6.721 15,-15c0,-8.279 -6.721,-15 -15,-15c-8.278,0 -15,6.721 -15,15c0,8.279 6.722,15 15,15Z" style="fill:#fff;"/><path d="M866.511,315.25c8.279,0 15,-6.721 15,-15c0,-8.279 -6.721,-15 -15,-15c-8.278,0 -15,6.721 -15,15c0,8.279 6.722,15 15,15Z" style="fill:#fff;"/><g><rect x="74.676" y="73.367" width="120" height="81.236" style="fill:none;stroke:#fff;stroke-width:13px;"/><rect x="705.324" y="73.367" width="120" height="81.236" style="fill:none;stroke:#fff;stroke-width:13px;"/><rect x="74.676" y="187.622" width="120" height="81.236" style="fill:none;stroke:#fff;stroke-width:13px;"/><rect x="705.324" y="187.622" width="120" height="81.236" style="fill:none;stroke:#fff;stroke-width:13px;"/></g><g transform="matrix(0.509942,0,0,0.509942,5.25822,-69.9154)"><path d="M565.21,401.098l0,-36.621l-99.896,0l-25.63,113.52l2.271,0c13.302,-9.413 26.604,-13.957 41.528,-13.957c27.577,0 49.315,19.151 49.315,43.495c0,23.046 -19.467,41.548 -43.475,41.548c-20.764,0 -37.96,-8.764 -54.182,-27.59l-13.95,36.665c19.141,19.445 40.879,28.195 69.105,28.195c49.957,0 84.638,-31.76 84.638,-77.519c0,-43.171 -31.44,-75.251 -73.607,-75.251c-4.866,0 -8.435,0.324 -15.897,1.296l8.435,-33.781l71.345,0Z" style="fill:#fff;fill-rule:nonzero;"/><path d="M628.183,401.098l0,179.74l42.136,0l0,-216.361l-73.282,0l0,36.621l31.146,0Z" style="fill:#fff;fill-rule:nonzero;"/><path d="M780.345,544.217l37.957,-39.917c27.55,-29.208 39.219,-51.6 39.219,-75.615c0,-40.231 -32.737,-69.723 -76.527,-69.723c-43.475,0 -72.675,28.195 -75.594,72.968l44.772,0c0.973,-22.393 12.978,-35.698 32.12,-35.698c18.493,0 33.092,14.279 33.092,32.777c0,18.174 -10.382,34.725 -49.963,79.51l-63.59,72.319l157.312,0l0,-36.621l-78.798,0Z" style="fill:#fff;fill-rule:nonzero;"/><path d="M893.554,580.838l42.502,0l21.737,-133.304l57.426,136.224l11.68,0l59.372,-136.224l19.466,133.304l42.502,0l-36.013,-220.254l-29.199,0l-61.319,141.441l-59.048,-141.441l-28.875,0l-40.231,220.254Z" style="fill:#fff;fill-rule:nonzero;"/><path d="M1177.13,580.838l72.979,0c24.025,0 41.213,-5.185 53.855,-16.527c12.317,-11.018 19.124,-27.239 19.124,-44.445c0,-15.909 -5.835,-31.167 -15.559,-40.892c-6.807,-7.129 -13.614,-10.369 -28.2,-13.61c8.428,-5.184 11.993,-8.1 15.559,-12.965c4.843,-7.792 8.084,-19.156 8.084,-30.844c0,-17.857 -7.454,-34.718 -19.446,-44.116c-11.019,-8.749 -27.889,-12.962 -52.893,-12.962l-53.503,0l0,216.361Zm42.137,-126.167l0,-56.168l12.665,0c21.107,0 32.148,9.416 32.148,27.922c0,18.831 -11.041,28.246 -32.798,28.246l-12.015,0Zm0,92.141l0,-60.062l15.912,0c17.535,0 24.355,1.299 31.818,6.169c8.111,4.87 12.656,13.636 12.656,24.025c0,20.128 -13.635,29.868 -42.205,29.868l-18.181,0Z" style="fill:#fff;fill-rule:nonzero;"/></g></svg>