<?xml version="1.0" encoding="UTF-8" standalone="no"?><!DOCTYPE svg PUBLIC "-//W3C//DTD SVG 1.1//EN" "http://www.w3.org/Graphics/SVG/1.1/DTD/svg11.dtd"><svg width="100%" height="100%" viewBox="0 0 1920 512" version="1.1" xmlns="http://www.w3.org/2000/svg" xmlns:xlink="http://www.w3.org/1999/xlink" xml:space="preserve" xmlns:serif="http://www.serif.com/" style="fill-rule:evenodd;clip-rule:evenodd;stroke-linecap:round;stroke-linejoin:round;stroke-miterlimit:1.5;"><path d="M1205.35,99.999c38.228,0 69.09,10.619 92.585,31.857c13.008,11.681 19.512,22.499 19.512,32.455c0,6.371 -2.389,12.079 -7.168,17.123c-5.84,6.106 -12.743,9.159 -20.707,9.159c-6.769,0 -12.145,-2.19 -16.128,-6.57c-0.398,-0.399 -2.057,-2.456 -4.977,-6.173c-15.398,-20.309 -36.105,-30.463 -62.122,-30.463c-20.574,0 -38.295,6.968 -53.162,20.906c-21.238,19.778 -31.857,48.981 -31.857,87.607c0,27.876 6.305,51.437 18.915,70.684c15.796,24.025 38.03,36.038 66.701,36.038c28.141,0 52.034,-12.477 71.679,-37.432c4.513,-5.708 10.619,-8.562 18.318,-8.562c7.699,0 14.336,2.589 19.911,7.766c5.84,5.309 8.761,11.813 8.761,19.512c0,8.23 -3.85,16.592 -11.549,25.088c-25.751,28.406 -61.391,42.609 -106.92,42.609c-45.928,0 -82.497,-15.862 -109.709,-47.587c-23.76,-27.61 -35.64,-63.582 -35.64,-107.916c0,-48.052 14.07,-86.679 42.211,-115.881c25.751,-26.813 59.533,-40.22 101.346,-40.22Z" style="fill-rule:nonzero;"/><path d="M1462.6,187.009c29.999,0 54.688,9.956 74.068,29.866c20.309,20.84 30.464,48.184 30.464,82.033c0,26.68 -6.239,49.578 -18.717,68.692c-19.247,29.335 -47.985,44.003 -86.213,44.003c-33.45,0 -59.865,-11.681 -79.245,-35.043c-16.991,-20.309 -25.486,-46.26 -25.486,-77.851c0,-33.849 10.088,-61.06 30.264,-81.635c19.513,-20.043 44.468,-30.065 74.865,-30.065Zm-0.597,43.207c-16.858,0 -30.132,7.3 -39.822,21.901c-8.097,12.212 -12.146,27.676 -12.146,46.393c0,14.203 2.257,26.614 6.77,37.233c9.026,20.972 24.291,31.459 45.795,31.459c17.123,0 30.397,-7.168 39.821,-21.504c8.098,-12.345 12.146,-28.074 12.146,-47.188c0,-19.38 -4.314,-35.176 -12.942,-47.388c-9.69,-13.938 -22.897,-20.906 -39.622,-20.906Z" style="fill-rule:nonzero;"/><path d="M1722.83,99.999c26.149,0 49.578,5.907 70.285,17.721c19.645,11.282 29.468,23.295 29.468,36.038c0,6.372 -2.389,11.947 -7.168,16.725c-5.442,5.442 -11.946,8.164 -19.513,8.164c-6.769,0 -13.738,-3.385 -20.906,-10.155c-15.53,-14.734 -32.985,-22.101 -52.365,-22.101c-15.398,0 -27.875,2.655 -37.433,7.964c-11.017,6.106 -16.525,15.066 -16.525,26.88c0,10.486 4.977,19.247 14.933,26.282c7.433,5.31 25.154,12.146 53.161,20.508c36.371,10.752 61.193,21.438 74.467,32.057c19.778,15.928 29.667,36.37 29.667,61.325c0,29.202 -11.681,52.033 -35.043,68.493c-21.106,14.734 -48.516,22.101 -82.232,22.101c-31.857,0 -59.931,-7.699 -84.222,-23.097c-22.964,-14.601 -34.446,-28.804 -34.446,-42.609c0,-5.707 1.858,-10.818 5.575,-15.331c5.177,-6.504 11.747,-9.756 19.712,-9.756c5.707,0 10.951,1.792 15.729,5.376c1.46,1.194 4.314,3.916 8.562,8.163c20.043,19.645 43.074,29.468 69.09,29.468c17.389,0 31.459,-3.252 42.211,-9.756c11.681,-6.903 17.522,-16.659 17.522,-29.269c0,-12.876 -6.106,-23.229 -18.318,-31.061c-8.23,-5.177 -26.747,-12.278 -55.551,-21.304c-30.53,-9.558 -53.096,-19.447 -67.697,-29.667c-18.451,-13.009 -27.676,-32.521 -27.676,-58.538c0,-21.106 7.5,-39.224 22.499,-54.357c19.911,-20.176 48.649,-30.264 86.214,-30.264Z" style="fill-rule:nonzero;"/><path d="M960.514,183.329l-39.704,0l-2.59,9.047c-15.968,-9.909 -24.6,-12.494 -39.705,-12.494c-44.434,0 -77.181,34.898 -77.181,81.943c0,45.315 29.3,78.921 69.413,78.921c17.695,0 27.621,-3.877 45.315,-18.957c8.2,12.926 18.126,18.526 32.8,18.526c45.315,0 83.225,-47.409 83.225,-103.961c0,-75.047 -63.804,-132.833 -146.235,-132.833c-89.272,0 -158.291,66.858 -158.291,153.122c0,55.672 28.867,106.142 75.496,132.884c24.13,13.785 53.448,20.677 86.679,20.677c37.116,0 59.989,-5.169 96.673,-22.401l2.158,-1.292l3.021,-1.723l2.158,-0.862l-13.811,-34.969l-2.589,1.297l-3.884,2.16l-2.59,1.297l-13.81,6.481c-18.989,8.643 -42.294,13.396 -67.757,13.396c-25.032,0 -47.038,-5.186 -64.704,-15.124c-34.935,-20.303 -56.109,-59.083 -56.109,-101.821c0,-66.852 51.37,-118.231 117.792,-118.231c62.146,0 108.755,42.332 108.755,98.805c0,34.104 -21.146,67.344 -42.293,67.344c-3.884,0 -4.747,-1.295 -4.747,-7.339c0,-7.338 0.431,-13.382 0.863,-18.994l11.652,-94.899Zm-80.272,37.052c19.42,0 33.662,14.246 33.662,33.241c0,24.608 -19.42,46.625 -40.999,46.625c-16.4,0 -28.052,-15.11 -28.052,-37.127c0,-25.039 14.673,-42.739 35.389,-42.739Z" style="fill-rule:nonzero;"/><path d="M539.836,99.999l76.372,239.423l165.804,72.579l-242.176,-1.797l0,-306.683" style="stroke:#000;stroke-width:1px;"/><path d="M452.106,276.352l-40.75,-67.89l81.501,0l-40.751,67.89l-40.75,135.649l81.501,-1.172l-40.751,-134.477Z" style="stroke:#000;stroke-width:1px;"/><path d="M79.097,412.001l74.303,-312.002l74.303,312.002l74.302,-312.002l74.303,312.002l-297.211,0Z" style="stroke:#000;stroke-width:1px;"/></svg>